<svg width="47" height="47" viewBox="0 0 47 47" fill="none" xmlns="http://www.w3.org/2000/svg">
<path d="M44.0647 23.9567C44.0647 22.266 43.9247 21.0322 43.6218 19.7528H23.9219V27.3837H35.4853C35.2522 29.2801 33.9933 32.136 31.1956 34.055L31.1564 34.3105L37.3851 39.0393L37.8167 39.0816C41.7799 35.4945 44.0647 30.2168 44.0647 23.9567Z" fill="#4285F4"/>
<path d="M23.9208 44.0625C29.5859 44.0625 34.3417 42.2346 37.8156 39.0818L31.1945 34.0552C29.4227 35.2661 27.0447 36.1115 23.9208 36.1115C18.3722 36.1115 13.663 32.5245 11.9842 27.5667L11.7382 27.5871L5.26146 32.4993L5.17676 32.7301C8.62711 39.4472 15.7144 44.0625 23.9208 44.0625Z" fill="#34A853"/>
<path d="M11.985 27.5668C11.542 26.2873 11.2857 24.9164 11.2857 23.4999C11.2857 22.0833 11.542 20.7125 11.9617 19.4331L11.95 19.1606L5.39205 14.1696L5.17749 14.2696C3.75543 17.057 2.93945 20.1871 2.93945 23.4999C2.93945 26.8128 3.75543 29.9427 5.17749 32.7301L11.985 27.5668Z" fill="#FBBC05"/>
<path d="M23.9209 10.8883C27.8608 10.8883 30.5185 12.5561 32.0339 13.9499L37.9556 8.28375C34.3188 4.97091 29.586 2.9375 23.9209 2.9375C15.7145 2.9375 8.62712 7.5526 5.17676 14.2696L11.961 19.4332C13.663 14.4753 18.3723 10.8883 23.9209 10.8883Z" fill="#EB4335"/>
</svg>
