<svg width="47" height="47" viewBox="0 0 47 47" fill="none" xmlns="http://www.w3.org/2000/svg">
<path d="M44.0635 23.5C44.0635 34.8505 34.8618 44.0625 23.501 44.0625C12.1402 44.0625 2.93848 34.8505 2.93848 23.5C2.93848 12.1392 12.1402 2.9375 23.501 2.9375C34.8618 2.9375 44.0635 12.1392 44.0635 23.5Z" fill="#283544"/>
<path d="M33.1371 18.2968C33.0249 18.3622 30.3538 19.7436 30.3538 22.8065C30.4797 26.2996 33.7246 27.5246 33.7803 27.5246C33.7246 27.59 33.2904 29.1933 32.0041 30.8739C30.9833 32.3216 29.8502 33.7812 28.1297 33.7812C26.4931 33.7812 25.9056 32.8164 24.0172 32.8164C21.9892 32.8164 21.4154 33.7812 19.8627 33.7812C18.1422 33.7812 16.9252 32.2434 15.8487 30.8093C14.4502 28.9323 13.2615 25.9867 13.2195 23.1585C13.1913 21.6598 13.4996 20.1865 14.2823 18.9352C15.3871 17.1883 17.3594 16.0024 19.5133 15.9633C21.1636 15.9114 22.6323 17.0191 23.6395 17.0191C24.6047 17.0191 26.4091 15.9633 28.4508 15.9633C29.332 15.9641 31.6821 16.2115 33.1371 18.2968ZM23.4999 15.664C23.2062 14.2954 24.0172 12.9267 24.7725 12.0537C25.7377 10.9979 27.2621 10.2812 28.5767 10.2812C28.6606 11.6499 28.1288 12.9922 27.1782 13.9698C26.3252 15.0256 24.8565 15.8205 23.4999 15.664Z" fill="white"/>
</svg>
