<svg width="40" height="40" viewBox="0 0 40 40" fill="none" xmlns="http://www.w3.org/2000/svg">
<path d="M27.0714 35.8339C26.7775 35.9195 26.542 36.1152 26.2846 36.2669C24.1695 37.5072 22.0568 38.7499 19.9296 40C18.8951 39.3958 17.8679 38.794 16.8382 38.1922C15.5852 37.4607 14.3297 36.7293 13.0767 36.0003C13.0039 35.9587 12.9213 35.9268 12.846 35.8901C12.5862 35.6895 12.3069 35.5208 12.0058 35.3887C11.5274 35.0413 11.0029 34.7673 10.4978 34.4664C9.15003 33.664 7.79743 32.8665 6.44726 32.0666C6.36469 32.0054 6.28213 31.9442 6.17285 31.8635C6.17285 31.6556 6.17285 31.4378 6.17285 31.2177C6.17771 31.0782 6.18742 30.9388 6.18742 30.7969C6.18742 28.5291 6.18742 26.2614 6.18742 23.9937C6.28456 23.9178 6.37926 23.8493 6.47154 23.7784C6.79209 23.6145 7.11506 23.4579 7.40646 23.2426C9.12089 22.2421 10.8377 21.244 12.5522 20.241C12.5692 20.2312 12.574 20.2043 12.591 20.1749C12.6007 20.0379 12.608 19.8887 12.6202 19.7199C10.896 18.7169 9.1816 17.7188 7.46474 16.7207C7.13206 16.5274 6.79937 16.3342 6.46911 16.1409C6.37441 16.0724 6.28213 16.0015 6.19714 15.9403C6.19714 13.3154 6.19714 10.7027 6.19714 8.09004C6.28456 8.0191 6.36955 7.95303 6.45211 7.88698C6.77266 7.68393 7.0932 7.48334 7.41375 7.28029C8.44338 6.68094 9.47786 6.08893 10.5026 5.48224C11.0272 5.17156 11.576 4.89757 12.0689 4.53306C12.3822 4.42298 12.6469 4.22727 12.9164 4.0389C15.0485 2.8035 17.1782 1.5681 19.3103 0.335146C19.4949 0.227508 19.6819 0.11987 19.8858 0C20.4517 0.325362 21.0175 0.653173 21.5833 0.980982C23.3147 1.98643 25.0437 2.99187 26.7751 3.99732C26.831 4.02912 26.8917 4.05114 26.95 4.07805C27.2268 4.30066 27.5619 4.41074 27.8655 4.58443C28.169 4.76546 28.4701 4.94894 28.7761 5.12507C30.0218 5.84185 31.2676 6.55372 32.5134 7.26805C32.8072 7.48088 33.135 7.63013 33.4653 7.77935C33.6013 7.84785 33.611 7.96771 33.611 8.1047C33.6085 10.6318 33.6085 13.1588 33.6134 15.6859C33.6134 15.8327 33.5721 15.933 33.458 16.0113C33.1447 16.2094 32.8315 16.4076 32.5182 16.6057C30.7552 17.6332 28.9922 18.6631 27.2438 19.6808C27.2244 19.8936 27.2098 20.0648 27.1952 20.241C28.9777 21.2782 30.7431 22.3081 32.5085 23.3356C32.8193 23.5362 33.135 23.7319 33.4726 23.8885C33.6425 23.9618 33.6061 24.1135 33.6061 24.2505C33.611 26.5354 33.6134 28.8227 33.6183 31.1076C33.6158 31.247 33.6158 31.3865 33.6061 31.5234C33.594 31.6947 33.6717 31.8929 33.4774 32.0176C32.812 32.4066 32.1442 32.7882 31.4813 33.1821C30.2841 33.894 29.0918 34.6107 27.8995 35.3251C27.6129 35.4743 27.3142 35.6064 27.0714 35.8339ZM18.7809 23.8811C18.7494 23.8542 18.7227 23.82 18.6862 23.7979C17.0252 22.8243 15.3618 21.8531 13.7008 20.8794C13.6522 20.8525 13.6085 20.8232 13.5502 20.8746C13.5721 23.1374 13.5211 25.4101 13.5818 27.6974C15.7115 28.945 17.8217 30.1853 19.9247 31.4183C21.8965 30.2612 23.8392 29.1212 25.8111 27.9641C24.422 27.1519 23.0791 26.3593 21.729 25.5813C21.032 25.1801 20.3618 24.7251 19.6284 24.39C19.3443 24.2187 19.0626 24.0499 18.7809 23.8811ZM19.473 15.1673C19.7571 15.3777 20.0583 15.5587 20.3788 15.7128C22.3385 16.8626 24.2982 18.0148 26.2894 19.1842C26.2894 16.8455 26.2894 14.5679 26.2894 12.2782C24.1428 11.0256 22.001 9.77556 19.8858 8.54016C17.8994 9.70217 15.9689 10.8324 13.9946 11.987C15.1578 12.6671 16.2676 13.3203 17.3822 13.9661C18.0767 14.3673 18.7518 14.8077 19.473 15.1673Z" fill="#EE3D48"/>
<path d="M27.8632 4.57954C27.5597 4.4083 27.2222 4.29577 26.9478 4.07315C28.2226 3.33191 29.5 2.59311 30.7749 1.85187C31.3334 1.52896 31.9016 1.21828 32.448 0.875789C32.8317 0.636049 33.1717 0.648288 33.5578 0.883136C35.5126 2.06227 37.4747 3.22916 39.4393 4.39117C39.8205 4.61623 40.0002 4.91468 40.0002 5.36725C39.9929 15.1183 39.9929 24.8694 40.0002 34.6205C40.0002 35.1122 39.8084 35.4303 39.3883 35.6675C37.4942 36.7366 35.6097 37.8203 33.752 38.953C33.2591 39.2539 32.8147 39.2514 32.3096 38.9481C30.6559 37.9573 28.9852 36.9983 27.3217 36.0247C27.2319 35.9709 27.1177 35.944 27.074 35.829C27.3144 35.6015 27.6156 35.4694 27.9021 35.3153C29.0507 35.9904 30.1993 36.6656 31.3504 37.3384C31.9138 37.6686 32.4796 37.994 33.0381 38.3169C34.9177 37.2234 36.7729 36.1446 38.6646 35.0437C38.094 34.711 37.5646 34.4028 37.0376 34.0921C35.8526 33.3973 34.6651 32.7002 33.4801 32.0054C33.6743 31.8806 33.5966 31.6825 33.6088 31.5112C33.6185 31.3718 33.616 31.2323 33.6209 31.0953C35.4325 32.1399 37.244 33.1821 39.0823 34.2413C39.0823 24.5318 39.0823 14.8835 39.0823 5.21558C37.2246 4.10984 35.3718 3.00655 33.4655 1.8739C33.4655 3.89212 33.4655 5.82961 33.4655 7.76711C33.1377 7.61788 32.8074 7.46866 32.5136 7.25583C32.5136 5.47979 32.5136 3.7062 32.5136 1.869C31.9988 2.16501 31.5447 2.42431 31.0905 2.68852C30.0148 3.32212 28.939 3.95083 27.8632 4.57954Z" fill="#C4B779"/>
<path d="M6.17041 31.2152C6.17041 31.4354 6.17041 31.6531 6.17041 31.8611C6.27969 31.9418 6.36225 32.003 6.44481 32.0641C4.74503 33.0475 3.0476 34.031 1.29189 35.0462C3.20788 36.1593 5.07286 37.243 6.92563 38.3194C8.6352 37.3311 10.3205 36.3574 12.0033 35.3862C12.3045 35.5183 12.5837 35.6871 12.8436 35.8877C12.0738 36.4015 11.2506 36.8247 10.4565 37.2968C9.46813 37.8864 8.46764 38.4588 7.47687 39.0484C7.10533 39.2686 6.76779 39.2686 6.38896 39.0484C4.39292 37.8766 2.38951 36.7195 0.386111 35.5599C0.235553 35.4718 0.0971347 35.374 0 35.2076C0 25.0603 0 14.9006 0 4.71655C0.917923 4.16612 1.8407 3.61325 2.76348 3.06037C3.93638 2.35828 5.11414 1.66597 6.27726 0.944305C6.73136 0.662977 7.1199 0.643402 7.591 0.924731C9.35643 1.9791 11.1388 3.00166 12.9164 4.03646C12.6469 4.22238 12.3822 4.42054 12.0689 4.53062C12.0106 4.50616 11.9451 4.49149 11.8916 4.45969C10.8402 3.85055 9.7911 3.2414 8.73962 2.63227C8.31709 2.38763 7.88969 2.14545 7.41373 1.87391C7.41373 3.72089 7.41373 5.49937 7.41373 7.2803C7.09319 7.48335 6.77264 7.68394 6.4521 7.88699C6.4521 5.91035 6.4521 3.93617 6.4521 1.90326C4.57019 3.02368 2.73677 4.11964 0.910638 5.20826C0.910638 14.8884 0.910638 24.5465 0.910638 34.2462C1.80428 33.7276 2.65421 33.2261 3.51142 32.7369C4.39535 32.228 5.25742 31.6751 6.17041 31.2152Z" fill="#C4B779"/>
<path d="M7.46536 16.7208C7.38765 16.7844 7.39979 16.8749 7.39979 16.9605C7.40222 19.0546 7.40465 21.1486 7.40708 23.2427C7.11567 23.458 6.7927 23.6146 6.47216 23.7785C6.47216 21.2343 6.46973 18.6876 6.46973 16.1434C6.79998 16.3342 7.13267 16.5275 7.46536 16.7208Z" fill="#C4B779"/>
<path d="M32.5083 23.3305C32.5763 23.2474 32.5617 23.1471 32.5617 23.0517C32.5617 20.9845 32.5617 18.9174 32.5617 16.8478C32.5617 16.7621 32.5763 16.6741 32.5156 16.5982C32.8288 16.4001 33.1421 16.2019 33.4554 16.0038C33.4602 18.1003 33.4627 20.1968 33.4675 22.2933C33.4675 22.8217 33.4699 23.3526 33.4724 23.881C33.1348 23.7244 32.8191 23.5311 32.5083 23.3305Z" fill="#C4B779"/>
<path d="M19.4736 15.1675C19.4736 13.2642 19.4736 11.3585 19.4736 9.46262C19.6023 9.31829 19.7578 9.24734 19.901 9.17639C20.088 9.21798 20.2289 9.31583 20.394 9.41613C20.394 9.51153 20.394 9.6094 20.394 9.70481C20.394 11.6105 20.394 13.5137 20.394 15.4194C20.394 15.5173 20.3843 15.6127 20.3794 15.7105C20.0589 15.5589 19.7578 15.3778 19.4736 15.1675Z" fill="#C4B779"/>
<path d="M19.6262 24.3874C18.2445 25.1947 16.8603 26.0044 15.4786 26.8117C15.107 27.0294 14.7355 27.2422 14.3591 27.46C14.2037 27.4037 14.0726 27.3156 13.9463 27.1958C13.9463 27.0392 13.9463 26.8802 13.9463 26.6723C15.5442 25.75 17.1614 24.8155 18.7787 23.881C19.0629 24.0498 19.3445 24.2186 19.6262 24.3874Z" fill="#C4B779"/>
</svg>
