<svg width="32" height="32" viewBox="0 0 32 32" fill="none" xmlns="http://www.w3.org/2000/svg">
<path d="M26.6031 10.5599C26.6194 10.795 26.6194 11.0301 26.6194 11.2674C26.6194 18.4966 21.116 26.834 11.0527 26.834V26.8297C8.08001 26.834 5.16904 25.9825 2.6665 24.377C3.09876 24.429 3.53318 24.455 3.96869 24.4561C6.43223 24.4582 8.82535 23.6316 10.7635 22.1095C8.42234 22.0651 6.3694 20.5387 5.65222 18.3102C6.47231 18.4684 7.31733 18.4359 8.12226 18.216C5.56988 17.7003 3.7336 15.4578 3.7336 12.8534C3.7336 12.8296 3.7336 12.8068 3.7336 12.7841C4.49412 13.2076 5.34563 13.4427 6.21664 13.4687C3.81269 11.8621 3.07168 8.66407 4.52337 6.1637C7.30108 9.58167 11.3994 11.6595 15.7989 11.8795C15.358 9.97926 15.9603 7.98806 17.3817 6.65229C19.5852 4.58092 23.0508 4.68709 25.1222 6.88954C26.3475 6.64796 27.5218 6.19837 28.5965 5.56136C28.1881 6.82779 27.3333 7.90356 26.1915 8.58715C27.2759 8.45932 28.3354 8.16898 29.3332 7.72589C28.5987 8.82657 27.6735 9.78534 26.6031 10.5599Z" fill="#BBBECD"/>
</svg>
