<svg width="21" height="17" viewBox="0 0 21 17" fill="none" xmlns="http://www.w3.org/2000/svg">
<rect x="0.5" y="0.5" width="20" height="16" rx="4" fill="#EE1C25"/>
<path fill-rule="evenodd" clip-rule="evenodd" d="M8.25783 7.85197L7.72535 7.99299L8.05556 7.5521L7.75691 7.08925L8.27826 7.26706L8.62616 6.84L8.61816 7.39078L9.13183 7.58968L8.60553 7.75227L8.5751 8.30227L8.25783 7.85197Z" fill="#FFFF00"/>
<path fill-rule="evenodd" clip-rule="evenodd" d="M9.88447 6.34621L9.43232 6.66084L9.59183 6.1336L9.15288 5.80081L9.70361 5.78959L9.88447 5.26929L10.0653 5.78959L10.616 5.80081L10.1771 6.1336L10.3366 6.66084L9.88447 6.34621Z" fill="#FFFF00"/>
<path fill-rule="evenodd" clip-rule="evenodd" d="M10.0558 3.95036L9.77071 4.42169L9.70198 3.87516L9.16562 3.74968L9.66417 3.51543L9.61777 2.96654L9.99461 3.3683L10.5023 3.15456L10.2366 3.63711L10.5968 4.05389L10.0558 3.95036Z" fill="#FFFF00"/>
<path fill-rule="evenodd" clip-rule="evenodd" d="M8.24778 2.40202L7.7107 2.52436L8.0561 2.09527L7.77378 1.62228L8.28861 1.81818L8.65121 1.40352L8.62399 1.95368L9.1304 2.17039L8.59875 2.31451L8.54914 2.86312L8.24778 2.40202Z" fill="#FFFF00"/>
<path fill-rule="evenodd" clip-rule="evenodd" d="M4.42293 5.34613L3.0665 6.29001L3.54503 4.7083L2.22818 3.70993L3.88036 3.67626L4.42293 2.11536L4.9655 3.67626L6.61767 3.70993L5.30083 4.7083L5.77935 6.29001L4.42293 5.34613Z" fill="#FFFF00"/>
</svg>
